<?xml version="1.0" encoding="iso-8859-1"?>
<!-- Generator: Adobe Illustrator 19.0.0, SVG Export Plug-In . SVG Version: 6.00 Build 0)  -->
<svg version="1.1" id="Capa_1" xmlns="http://www.w3.org/2000/svg" xmlns:xlink="http://www.w3.org/1999/xlink" x="0px" y="0px"
	 viewBox="0 0 490 490" style="enable-background:new 0 0 490 490;" xml:space="preserve">
<path d="M404.465,23.677h-53.131V0H330.03v23.677h-74.378V0h-21.304v23.677h-74.373V0h-21.304v23.677H85.535
	c-5.883,0-10.652,4.769-10.652,10.652v445.019c0,5.883,4.769,10.652,10.652,10.652h318.93c5.883,0,10.652-4.769,10.652-10.652
	V34.329C415.117,28.446,410.348,23.677,404.465,23.677z M138.671,44.981v23.681h21.304V44.981h74.373v23.681h21.304V44.981h74.378
	v23.681h21.304V44.981h42.479v74.914H96.187V44.981H138.671z M96.187,468.696V141.199h297.626v327.497H96.187z"/>
<g>
</g>
<g>
</g>
<g>
</g>
<g>
</g>
<g>
</g>
<g>
</g>
<g>
</g>
<g>
</g>
<g>
</g>
<g>
</g>
<g>
</g>
<g>
</g>
<g>
</g>
<g>
</g>
<g>
</g>
</svg>
