<?xml version="1.0" encoding="iso-8859-1"?>
<!-- Generator: Adobe Illustrator 19.0.0, SVG Export Plug-In . SVG Version: 6.00 Build 0)  -->
<svg version="1.1" id="Layer_1" xmlns="http://www.w3.org/2000/svg" xmlns:xlink="http://www.w3.org/1999/xlink" x="0px" y="0px"
	 viewBox="0 0 512 512" style="enable-background:new 0 0 512 512;" xml:space="preserve">
<g>
	<g>
		<g>
			<path d="M426.667,362.667c-11.776,0-21.333,9.557-21.333,21.333s9.557,21.333,21.333,21.333S448,395.776,448,384
				S438.443,362.667,426.667,362.667z"/>
			<path d="M426.667,277.333c-11.776,0-21.333,9.557-21.333,21.333S414.891,320,426.667,320S448,310.443,448,298.667
				S438.443,277.333,426.667,277.333z"/>
			<path d="M448,0H64C28.645,0,0,28.645,0,64v384c0,35.355,28.645,64,64,64h42.667h128h128H448c35.355,0,64-28.645,64-64V64
				C512,28.645,483.355,0,448,0z M213.333,469.333H128V170.667h85.333V469.333z M256,469.333V170.667h85.333v298.667H256z
				 M469.333,448c0,11.791-9.542,21.333-21.333,21.333h-64V170.667C384,147.109,364.891,128,341.333,128H234.667H128
				c-23.558,0-42.667,19.109-42.667,42.667v298.667H64c-11.791,0-21.333-9.542-21.333-21.333V64
				c0-11.791,9.542-21.333,21.333-21.333h384c11.791,0,21.333,9.542,21.333,21.333V448z"/>
			<path d="M298.667,64h-128c-11.782,0-21.333,9.551-21.333,21.333c0,11.782,9.551,21.333,21.333,21.333h128
				c11.782,0,21.333-9.551,21.333-21.333C320,73.551,310.449,64,298.667,64z"/>
		</g>
	</g>
</g>
<g>
</g>
<g>
</g>
<g>
</g>
<g>
</g>
<g>
</g>
<g>
</g>
<g>
</g>
<g>
</g>
<g>
</g>
<g>
</g>
<g>
</g>
<g>
</g>
<g>
</g>
<g>
</g>
<g>
</g>
</svg>
