<?xml version="1.0" encoding="UTF-8"?>
<svg width="700pt" height="700pt" version="1.1" viewBox="0 0 700 700" xmlns="http://www.w3.org/2000/svg">
 <g>
  <path d="m125.88 224.25 13.195 42.594h42.68l-34.527 26.32 13.195 42.594-34.543-26.336-34.527 26.336 13.195-42.594-34.547-26.32h42.684z"/>
  <path d="m237.95 224.25 13.176 42.594h42.699l-34.543 26.32 13.195 42.594-34.527-26.336-34.547 26.336 13.195-42.594-34.547-26.32h42.703z"/>
  <path d="m350 224.25 13.195 42.594h42.684l-34.527 26.32 13.195 42.594-34.547-26.336-34.547 26.336 13.195-42.594-34.527-26.32h42.684z"/>
  <path d="m462.05 224.25 13.195 42.594h42.703l-34.547 26.32 13.195 42.594-34.547-26.336-34.527 26.336 13.195-42.594-34.543-26.32h42.699z"/>
  <path d="m574.12 224.25 13.195 42.594h42.684l-34.547 26.32 13.195 42.594-34.527-26.336-34.543 26.336 13.195-42.594-34.527-26.32h42.68z"/>
 </g>
</svg>
