<?xml version='1.0' encoding='iso-8859-1'?>
<!DOCTYPE svg PUBLIC '-//W3C//DTD SVG 1.1//EN' 'http://www.w3.org/Graphics/SVG/1.1/DTD/svg11.dtd'>
<svg version="1.1" xmlns="http://www.w3.org/2000/svg" viewBox="0 0 480 480" xmlns:xlink="http://www.w3.org/1999/xlink" enable-background="new 0 0 480 480">
  <g>
    <path d="m330.753,160.611l35.681-35.68-14.143-14.143-35.908,35.908c-18.875-15.48-42.514-25.351-68.348-27.059v-50.405h-20v50.724c-25.68,2.54-49.016,13.167-67.425,29.291l-35.68-35.68-14.143,14.143 35.908,35.908c-15.48,18.875-25.352,42.513-27.06,68.348h-50.404v20h50.725c2.54,25.68 13.167,49.015 29.291,67.424l-35.681,35.681 14.143,14.143 35.909-35.909c18.875,15.48 42.513,25.351 68.347,27.058v50.407h20v-50.726c25.68-2.54 49.016-13.167 67.424-29.29l35.682,35.681 14.143-14.142-35.909-35.91c15.48-18.875 25.352-42.513 27.06-68.348l50.405,.001v-20l-50.725-.001c-2.541-25.68-13.168-49.015-29.292-67.424zm-90.753,180.025c-55.491,0-100.637-45.145-100.637-100.636s45.146-100.636 100.637-100.636 100.637,45.145 100.637,100.636-45.146,100.636-100.637,100.636z"/>
    <path d="m479.999,240c0-32.869-15.588-63.032-42.038-82.007 5.28-32.121-5.023-64.466-28.257-87.699-19.066-19.065-44.421-29.565-71.393-29.565-5.459,0-10.917,0.442-16.3,1.317-18.974-26.455-49.14-42.046-82.011-42.046-32.87,0-63.036,15.592-82.013,42.045-5.384-0.875-10.842-1.317-16.301-1.317-26.971,0-52.324,10.5-71.392,29.566-23.232,23.233-33.536,55.579-28.256,87.699-26.449,18.975-42.037,49.138-42.037,82.007 2.3306e-15,32.869 15.588,63.032 42.038,82.007-5.28,32.121 5.023,64.466 28.256,87.699 19.076,19.074 44.437,29.579 71.411,29.579 5.432,0 10.885-0.445 16.283-1.328 18.977,26.454 49.141,42.043 82.011,42.043 32.871,0 63.035-15.589 82.01-42.042 5.399,0.882 10.853,1.327 16.283,1.327 26.976,0 52.336-10.505 71.412-29.579 23.232-23.233 33.536-55.579 28.256-87.699 26.45-18.975 42.038-49.138 42.038-82.007zm-58.413,68.903l-6.113,3.787 1.644,7.001c6.469,27.544-1.589,55.909-21.554,75.873-15.298,15.297-35.637,23.722-57.27,23.722-6.216,0-12.475-0.729-18.603-2.168l-7-1.643-3.786,6.113c-14.899,24.052-40.657,38.412-68.904,38.412-28.246,0-54.005-14.36-68.905-38.414l-3.787-6.113-7,1.644c-6.126,1.439-12.384,2.169-18.602,2.169-21.633,0-41.971-8.424-57.269-23.722-19.965-19.964-28.022-48.329-21.554-75.873l1.644-7.001-6.113-3.787c-24.053-14.898-38.413-40.657-38.413-68.903s14.36-54.005 38.413-68.903l6.113-3.787-1.644-7.001c-6.469-27.544 1.589-55.909 21.554-75.873 15.289-15.289 35.62-23.708 57.249-23.708 6.268,0 12.532,0.726 18.621,2.155l7,1.645 3.787-6.113c14.901-24.055 40.66-38.415 68.906-38.415 28.247,0 54.005,14.36 68.903,38.413l3.786,6.114 7.001-1.644c6.089-1.43 12.354-2.155 18.621-2.155 21.63,0 41.962,8.419 57.251,23.708 19.965,19.964 28.022,48.329 21.554,75.873l-1.644,7.001 6.113,3.787c24.053,14.898 38.413,40.657 38.413,68.903s-14.359,54.005-38.412,68.903z"/>
  </g>
</svg>
